<svg width="32.000000" height="58.000000" viewBox="0 0 32 58" fill="none" xmlns="http://www.w3.org/2000/svg" xmlns:xlink="http://www.w3.org/1999/xlink">
	<desc>
			Created with Pixso.
	</desc>
	<defs/>
	<path id="地图" d="M14.4648 46.8789Q14.4492 47.4102 14.3672 47.9297Q14.2891 48.4492 14.1758 48.9453Q14.1289 49.1836 14 49.3672Q13.8711 49.5547 13.6211 49.6719Q13.375 49.793 13 49.8711Q12.625 49.9531 12.0664 49.9688Q10.0312 50.0664 8 49.9688Q7.44141 49.9531 7.03906 49.8555Q6.64062 49.7617 6.39062 49.543Q6.14453 49.3281 6.03125 48.9531Q5.92188 48.5781 5.92188 47.9688L5.92188 42.4023L4.52734 42.8789L4.25781 41.7617L5.92188 41.1992L5.92188 37.3945L7.05859 37.4727L7.05859 40.8164L8.94531 40.1914L8.94531 36L10.0977 36.082L10.0977 39.8086L13.4258 38.6875L13.2148 44.3047Q13.1992 44.7539 13.1172 45.0508Q13.0391 45.3438 12.8555 45.5273Q12.6719 45.7109 12.3672 45.8086Q12.0664 45.9062 11.5859 45.9531L10.9453 46.0156L10.5625 44.8633L11.2344 44.8008Q11.4883 44.7852 11.6484 44.7305Q11.8086 44.6719 11.8945 44.5625Q11.9844 44.4492 12.0234 44.2578Q12.0664 44.0664 12.082 43.7617Q12.0977 43.6172 12.1133 43.1055Q12.1289 42.5938 12.1523 42.0039Q12.1758 41.4102 12.1992 40.8984Q12.2266 40.3867 12.2266 40.2422L10.0977 40.9766L10.0977 47.3281L8.94531 47.3281L8.94531 41.3594L7.05859 42.0156L7.05859 47.4727Q7.05859 47.8906 7.08984 48.1406Q7.12109 48.3867 7.23828 48.5312Q7.35938 48.6719 7.58203 48.7383Q7.80859 48.8008 8.17578 48.8164Q9.88672 48.9141 11.6016 48.8164Q12.3828 48.7695 12.7109 48.6484Q13.0391 48.5273 13.1367 48.1445Q13.2344 47.7461 13.2812 47.3125Q13.3281 46.8789 13.3438 46.4961L14.4648 46.8789ZM5.32812 46.7227L5.41016 47.2148Q4.94531 47.4258 4.28906 47.6992Q3.63281 47.9688 2.91797 48.25Q2.20703 48.5273 1.54297 48.7695Q0.878906 49.0078 0.433594 49.1523L0 48.0469Q0.449219 47.9219 1.03125 47.7227Q1.61719 47.5195 2.24219 47.2969L2.24219 41.4883L0.449219 41.4883L0.449219 40.3672L2.24219 40.3672L2.24219 36.3203L3.34375 36.3672L3.34375 40.3672L5.02344 40.3672L5.02344 41.4883L3.34375 41.4883L3.34375 46.8789Q3.90625 46.6562 4.38281 46.457Q4.86328 46.2578 5.23438 46.0977L5.32812 46.7227ZM29.1698 36.7227L29.1698 50.4805L28.0487 50.4805L28.0487 49.5859L18.0956 49.5859L18.0956 50.4805L16.9784 50.4805L16.9784 36.7227L29.1698 36.7227ZM28.0487 48.543L28.0487 37.7773L18.0956 37.7773L18.0956 48.543L28.0487 48.543ZM23.9862 42.2891Q24.8651 42.6719 25.8573 42.9531Q26.8495 43.2344 27.9862 43.4883L27.537 44.4805Q26.1268 44.0977 25.037 43.6992Q23.951 43.2969 23.0565 42.8164Q22.162 43.2812 21.0721 43.707Q19.9862 44.1289 18.5917 44.543L18.162 43.6484Q19.3612 43.3125 20.3377 42.9688Q21.3143 42.625 22.1268 42.2578Q21.2167 41.6484 20.4002 40.7852Q20.0799 41.1367 19.7284 41.4492Q19.3768 41.7617 19.0096 42.0664L18.4627 41.3594Q18.8963 41.0078 19.3182 40.5781Q19.744 40.1445 20.119 39.6914Q20.4979 39.2344 20.8182 38.7773Q21.1385 38.3203 21.3768 37.9062L22.2557 38.2734Q21.951 38.8008 21.5682 39.3594L26.5448 39.3594L26.5448 40.207Q25.9354 40.8164 25.3182 41.3281Q24.7049 41.8398 23.9862 42.2891ZM21.0096 40.207Q21.9198 41.1836 23.0409 41.8086Q24.3377 41.1055 25.1854 40.207L21.0096 40.207ZM20.8495 43.8398Q21.2479 43.8906 21.8456 44.0117Q22.4471 44.1289 23.0799 44.2656Q23.7127 44.4023 24.3104 44.5547Q24.912 44.7031 25.3456 44.832L25.201 45.8086Q24.7831 45.6484 24.1893 45.4727Q23.5995 45.2969 22.9667 45.1445Q22.3377 44.9922 21.7362 44.8828Q21.1385 44.7695 20.7206 44.7227L20.8495 43.8398ZM19.7127 45.8242Q20.3065 45.8711 21.162 46.0156Q22.0174 46.1602 22.912 46.3438Q23.8104 46.5273 24.6424 46.7383Q25.4745 46.9453 26.0487 47.1367L25.8729 48.1289Q25.2948 47.9062 24.4627 47.6758Q23.6307 47.4414 22.744 47.25Q21.8573 47.0586 21.0174 46.9141Q20.1776 46.7695 19.5838 46.7227L19.7127 45.8242Z" fill-rule="evenodd" fill="#FE9300"/>
	<path id="path" d="M15.5866 14.8141C16.7348 14.8141 17.8078 14.3624 18.6172 13.5529C19.4266 12.7435 19.8784 11.6706 19.8784 10.5223C19.8784 9.37411 19.4266 8.30118 18.6172 7.49176C17.8078 6.68234 16.7348 6.23059 15.5866 6.23059C14.4384 6.23059 13.3654 6.70117 12.556 7.51059C11.7466 8.32001 11.2948 9.39294 11.2948 10.5412C11.2948 11.6894 11.7466 12.7624 12.556 13.5718C13.3654 14.3812 14.4572 14.8141 15.5866 14.8141ZM13.3654 8.30118C13.9678 7.69882 14.7584 7.37881 15.6054 7.37881C16.4525 7.37881 17.2431 7.69882 17.8454 8.30118C18.4478 8.90353 18.7678 9.69412 18.7678 10.5412C18.7678 11.3882 18.4289 12.16 17.8266 12.7624C17.2242 13.3647 16.4337 13.6847 15.5866 13.6847C14.7395 13.6847 13.9489 13.3647 13.3466 12.7624C12.7442 12.16 12.4242 11.3694 12.4242 10.5223C12.4242 9.67529 12.7631 8.90353 13.3654 8.30118ZM15.5866 24.6212L22.796 17.4118C24.716 15.4918 25.7889 12.9129 25.7889 10.2024C25.7889 7.49176 24.7348 4.91293 22.796 2.99295C20.876 1.05411 18.316 0 15.5866 0C12.8572 0 10.316 1.05411 8.37718 2.99295C6.45718 4.91293 5.38424 7.47293 5.38424 10.2024C5.38424 12.9318 6.43836 15.4918 8.37718 17.4118L15.5866 24.6212ZM9.18659 3.78354C10.8995 2.07059 13.1772 1.12943 15.5866 1.12943C17.996 1.12943 20.2925 2.07059 22.0054 3.78354C23.7184 5.49646 24.6595 7.77411 24.6595 10.2024C24.6595 12.6306 23.7184 14.9082 22.0054 16.6212L15.5866 23.04L9.18659 16.6212C7.47365 14.9082 6.53248 12.6306 6.53248 10.2024C6.53248 7.77411 7.47365 5.49646 9.18659 3.78354ZM31.116 29.0259L27.8972 17.8447C27.7089 17.2047 27.0313 16.7341 26.2972 16.7341L24.5089 16.7341C24.1889 16.7341 23.9442 16.9788 23.9442 17.2988C23.9442 17.6188 24.1889 17.8635 24.5089 17.8635L26.2972 17.8635C26.5419 17.8635 26.7678 18.0329 26.8054 18.1647L30.0242 29.3459C30.0619 29.4965 30.0619 29.6471 30.0054 29.7224C29.9678 29.7788 29.8925 29.8165 29.7795 29.8165L1.39365 29.8165C1.29954 29.8165 1.22424 29.7788 1.16777 29.7224C1.1113 29.6471 1.09248 29.4965 1.14895 29.3459L4.36777 18.1647C4.40542 18.0518 4.6313 17.8635 4.87601 17.8635L6.75836 17.8635C7.07836 17.8635 7.32307 17.6188 7.32307 17.2988C7.32307 16.9788 7.07836 16.7341 6.75836 16.7341L4.87601 16.7341C4.14189 16.7341 3.46424 17.2047 3.27601 17.8447L0.0760059 29.0259C-0.0745811 29.5341 0.000712395 30.0235 0.283065 30.4C0.546595 30.7388 0.941889 30.9271 1.41248 30.9271L29.7984 30.9271C30.2501 30.9271 30.6642 30.7388 30.9278 30.4C31.1913 30.0235 31.2666 29.5341 31.116 29.0259Z" fill-rule="nonzero" fill="#FE9300"/>
</svg>
