<svg width="48.000000" height="58.000000" viewBox="0 0 48 58" fill="none" xmlns="http://www.w3.org/2000/svg" xmlns:xlink="http://www.w3.org/1999/xlink">
	<desc>
			Created with Pixso.
	</desc>
	<defs>
		<clipPath id="clip2_80">
			<rect id="携带宠物" width="36.000000" height="36.000000" transform="translate(6.000000 0.000000)" fill="white"/>
		</clipPath>
	</defs>
	<path id="宠友圈" d="M2.25781 40.8164L1.10547 40.8164L1.10547 37.8398L6.80078 37.8398Q6.67188 37.3945 6.51172 36.9648Q6.35156 36.5312 6.22656 36.2578L7.41016 36.0664Q7.55469 36.3867 7.73047 36.8828Q7.90625 37.3789 8.03516 37.8398L13.2969 37.8398L13.2969 40.8008L12.1445 40.8008L12.1445 38.9766L2.25781 38.9766L2.25781 40.8164ZM8.24219 42.9141L8.24219 46.2734Q9.34375 45.6016 10.2461 44.8828Q11.1523 44.1602 11.8906 43.3438L12.6406 44.1133Q11.7305 45.1367 10.6484 45.9766Q9.57031 46.8164 8.24219 47.5703L8.24219 47.9062Q8.24219 48.2734 8.28906 48.4922Q8.33594 48.707 8.44922 48.8281Q8.5625 48.9453 8.75391 48.9844Q8.94531 49.0234 9.21875 49.043Q9.73047 49.0742 10.2812 49.0742Q10.832 49.0742 11.3438 49.043Q11.9531 49.0078 12.1992 48.8398Q12.4492 48.6719 12.5273 48.3047Q12.6094 47.9062 12.6406 47.4844Q12.6719 47.0586 12.707 46.6719L13.8242 47.0898Q13.7773 47.6172 13.7188 48.1367Q13.6641 48.6562 13.5391 49.1523Q13.4414 49.6328 12.9922 49.9023Q12.5469 50.1758 11.5391 50.2109Q10.9141 50.2422 10.2344 50.2422Q9.55469 50.2422 8.92969 50.2109Q8.46484 50.1914 8.12109 50.1016Q7.77734 50.0156 7.54297 49.8086Q7.3125 49.6016 7.19141 49.2227Q7.07422 48.8477 7.07422 48.2578L7.07422 48.1914Q6.35156 48.5469 5.57422 48.8906Q4.80078 49.2344 3.9375 49.5703L3.3125 48.5117Q5.37891 47.8086 7.07422 46.9297L7.07422 42.9141L5.74609 42.9141Q5.50391 44.0508 5.07812 45.043Q4.65625 46.0352 4.05469 46.9453Q3.45703 47.8555 2.67969 48.7461Q1.90625 49.6328 0.945312 50.5625L0 49.7305Q0.960938 48.8672 1.70312 48.0742Q2.44922 47.2812 3 46.4648Q3.55469 45.6484 3.94531 44.7852Q4.33594 43.9219 4.57812 42.9141L0.722656 42.9141L0.722656 41.8086L4.78516 41.8086Q4.78516 41.7773 4.79297 41.7695Q4.80078 41.7617 4.80078 41.7305Q4.83203 41.5391 4.86328 41.2578Q4.89844 40.9766 4.92969 40.6836Q4.96094 40.3867 4.98438 40.0898Q5.00781 39.793 5.04297 39.5547L6.19141 39.6328Q6.16016 39.8555 6.13672 40.1367Q6.11328 40.418 6.07422 40.6914Q6.03516 40.9609 6 41.2188Q5.96875 41.4727 5.95312 41.6641Q5.95312 41.6992 5.94531 41.7383Q5.9375 41.7773 5.9375 41.8086L9.76172 41.8086Q9.60156 41.6016 9.40234 41.3633Q9.20312 41.1211 8.99219 40.8906Q8.78516 40.6562 8.60156 40.4648Q8.41797 40.2734 8.28906 40.1445L9.04297 39.4727Q9.21875 39.6172 9.44922 39.8594Q9.67969 40.0977 9.92578 40.3555Q10.1758 40.6094 10.3984 40.8594Q10.625 41.1055 10.7695 41.2812L10.2266 41.8086L13.8242 41.8086L13.8242 42.9141L8.24219 42.9141ZM29.5057 50.5312Q27.8104 49.9062 26.4979 49.2422Q25.1854 48.5781 24.1307 47.7773Q23.0721 48.5469 21.744 49.2109Q20.4159 49.875 18.6893 50.5469L18.0331 49.4258Q19.6346 48.8672 20.8963 48.2656Q22.162 47.6641 23.1698 46.9609Q22.2909 46.1289 21.619 45.1367Q20.9471 44.1445 20.3846 42.8984Q19.7792 44.8008 18.8182 46.5938Q17.8573 48.3867 16.4002 50.0664L15.3768 49.2812Q16.3846 48.1289 17.1424 46.9219Q17.9042 45.7148 18.4393 44.4492Q18.9784 43.1836 19.3377 41.9062Q19.6971 40.625 19.9198 39.3281L16.162 39.3281L16.162 38.1445L20.0956 38.1445Q20.1776 37.6016 20.2245 37.0664Q20.2713 36.5312 20.3065 36L21.5995 36.0977Q21.537 37.0898 21.4081 38.1445L29.8885 38.1445L29.8885 39.3281L21.2323 39.3281Q21.0565 40.3867 20.8026 41.4414L28.1463 41.4414L28.1463 42.5781Q27.5682 43.9531 26.8299 45.0273Q26.0956 46.0977 25.0877 46.9922Q26.0643 47.6992 27.287 48.2656Q28.5135 48.832 30.0956 49.3281L29.5057 50.5312ZM21.4588 42.5781Q22.0018 43.6797 22.6502 44.5859Q23.2987 45.4883 24.1307 46.2422Q25.0721 45.4414 25.744 44.5391Q26.4159 43.6328 26.8963 42.5781L21.4588 42.5781ZM44.8161 36.7695L44.8161 50.5625L43.6794 50.5625L43.6794 49.9219L33.6325 49.9219L33.6325 50.5625L32.4802 50.5625L32.4802 36.7695L44.8161 36.7695ZM43.6794 48.8984L43.6794 37.8086L33.6325 37.8086L33.6325 48.8984L43.6794 48.8984ZM40.8825 42.8984Q41.3786 43.457 42.0349 43.8828Q42.6911 44.3047 43.6794 44.7383L43.2028 45.5859Q41.8083 44.8984 40.9294 44.1602L40.8474 45.3125Q40.8161 45.6016 40.7341 45.8008Q40.656 46 40.4646 46.1367Q40.2732 46.2734 39.945 46.3477Q39.6169 46.418 39.0896 46.4492L38.4177 46.4805L38.1286 45.6484L38.9607 45.6016Q39.2653 45.5859 39.4567 45.5547Q39.6482 45.5195 39.7614 45.4648Q39.8747 45.4102 39.9138 45.3242Q39.9528 45.2344 39.9685 45.0898L39.9997 44.707L36.8474 44.707L36.8474 46.4023Q36.8474 46.8828 36.9997 47.0273Q37.1521 47.168 37.6325 47.1836Q38.9294 47.2656 40.2263 47.1836Q40.738 47.1523 40.945 47.0586Q41.1521 46.9609 41.2028 46.7852Q41.3122 46.3711 41.363 45.8906L42.3357 46.2266Q42.2888 46.5781 42.2224 46.8672Q42.1599 47.1523 42.0817 47.457Q41.9841 47.7461 41.6794 47.9062Q41.3786 48.0664 40.5622 48.0977Q38.8825 48.1758 37.2028 48.0977Q36.4333 48.0664 36.1286 47.793Q35.8239 47.5195 35.8239 46.7539L35.8239 44.6562Q35.488 44.9297 35.0974 45.2031Q34.7067 45.4727 34.2419 45.7461L33.7458 44.9453Q35.4255 44 36.3864 42.8984L34.113 42.8984L34.113 42.0156L37.0271 42.0156Q37.2966 41.5547 37.488 41.1211L34.4333 41.1211L34.4333 40.2578L36.4021 40.2578Q36.1286 39.8906 35.7341 39.4844Q35.3435 39.0742 35.0739 38.8477L35.6989 38.2578Q35.8591 38.3867 36.0583 38.5703Q36.2575 38.7539 36.4646 38.9609Q36.6716 39.168 36.8552 39.3633Q37.0427 39.5547 37.1677 39.6992L36.6911 40.2578L37.7927 40.2578Q37.9528 39.7617 38.0974 39.1367Q38.2419 38.5117 38.32 37.9531L39.281 38.0977Q39.1833 38.6562 39.0544 39.2188Q38.9294 39.7773 38.8005 40.2578L40.5778 40.2578L40.0974 39.7461Q40.2575 39.6328 40.4646 39.4414Q40.6716 39.25 40.8864 39.0352Q41.1052 38.8164 41.2966 38.5938Q41.488 38.3711 41.6169 38.1914L42.2575 38.8008Q42.1442 38.9453 41.9763 39.1367Q41.8083 39.3281 41.6247 39.5312Q41.4411 39.7305 41.2497 39.9219Q41.0583 40.1133 40.8982 40.2578L42.8161 40.2578L42.8161 41.1211L38.531 41.1211Q38.3864 41.5703 38.1442 42.0156L43.1521 42.0156L43.1521 42.8984L40.8825 42.8984ZM40.5622 43.8398Q40.0661 43.3789 39.7302 42.8984L37.5857 42.8984Q37.4099 43.1211 37.1989 43.3633Q36.9919 43.6016 36.7536 43.8398L40.5622 43.8398Z" fill-rule="evenodd" fill="#85898D"/>
	<g clip-path="url(#clip2_80)">
		<path id="path" d="M37.7025 15.0338L38.6362 22.1812C39.2265 26.6985 36.0427 30.84 31.5255 31.4303C31.1698 31.4767 30.8133 31.5 30.456 31.5L17.544 31.5C12.9877 31.5 9.294 27.8062 9.294 23.25C9.29404 22.892 9.31729 22.5355 9.36375 22.1805L10.2982 15.033C9.48048 14.2875 8.76048 13.4573 8.13825 12.5423C6.975 10.8473 6.5295 9.22424 6.852 7.69501C6.92925 7.32974 7.09425 6.98999 7.332 6.70651C8.388 5.44727 10.1595 4.57574 12.6315 4.05374C14.3415 3.69226 16.0215 3.6525 17.67 3.93524C18.1653 4.02112 18.5808 4.2511 18.9165 4.62524L18.9165 4.5L29.2065 4.5C29.5242 4.19882 29.8987 4.01083 30.33 3.936C31.9778 3.65326 33.6592 3.69299 35.3685 4.0545C37.8412 4.57651 39.612 5.448 40.668 6.70724C40.9058 6.99075 41.0707 7.32974 41.148 7.69577C41.4705 9.22424 41.0242 10.8473 39.8617 12.5423C39.2396 13.4576 38.5203 14.2881 37.7025 15.0338ZM36.2812 15.7403C35.5155 15.8123 34.8892 15.5506 34.4025 14.955C34.249 14.7688 34.1285 14.5633 34.041 14.3385C33.666 13.3785 32.964 12.2588 31.932 10.9883C31.0229 9.8605 30.0791 8.76248 29.1008 7.69424C28.6592 7.2149 28.4607 6.65018 28.5052 6L19.4948 6C19.5395 6.65045 19.341 7.21545 18.8993 7.69501C17.9209 8.763 16.9771 9.86075 16.068 10.9883C15.036 12.2588 14.334 13.3785 13.959 14.3385C13.8713 14.5627 13.749 14.7705 13.5975 14.955C13.1108 15.5506 12.4845 15.8123 11.7188 15.7403L10.851 22.3748C10.725 23.338 10.8034 24.2842 11.0859 25.2136C11.3685 26.143 11.8302 26.9727 12.471 27.7028C13.1118 28.4329 13.8747 28.9982 14.7596 29.399C15.6445 29.7997 16.5726 30 17.544 30L30.456 30C31.4274 30 32.3555 29.7997 33.2404 29.3989C34.1253 28.9982 34.8882 28.4328 35.529 27.7028C36.1698 26.9727 36.6315 26.143 36.9141 25.2136C37.1966 24.2842 37.275 23.338 37.149 22.3748L36.2812 15.7403ZM24 23.7053C22.9802 25.4026 21.4802 26.2509 19.5 26.25C19 26.25 18.75 26 18.75 25.5C18.75 25 19 24.75 19.5 24.75C20.5355 24.75 21.4194 24.3839 22.1516 23.6516C22.8839 22.9194 23.25 22.0355 23.25 21C23.25 20.9355 23.2575 20.8725 23.2733 20.8125C22.8622 20.5848 22.6131 20.2401 22.526 19.7783C22.4389 19.3165 22.5453 18.9048 22.8452 18.543C23.1451 18.1812 23.5301 18.0003 24 18.0003C24.4699 18.0003 24.8549 18.1812 25.1548 18.543C25.4547 18.9048 25.5611 19.3165 25.474 19.7783C25.3869 20.2401 25.1378 20.5848 24.7267 20.8125C24.7418 20.8725 24.75 20.9355 24.75 21C24.75 22.0355 25.1161 22.9194 25.8484 23.6516C26.5806 24.3839 27.4645 24.75 28.5 24.75C29 24.75 29.25 25 29.25 25.5C29.25 26 29 26.25 28.5 26.25C26.52 26.2511 25.02 25.4023 24 23.7053ZM30 18.75C29.5858 18.75 29.2322 18.6035 28.9393 18.3107C28.6464 18.0178 28.5 17.6642 28.5 17.25C28.5 16.8358 28.6464 16.4822 28.9393 16.1893C29.2322 15.8965 29.5858 15.75 30 15.75C30.4142 15.75 30.7678 15.8965 31.0607 16.1893C31.3536 16.4822 31.5 16.8358 31.5 17.25C31.5 17.6642 31.3536 18.0178 31.0607 18.3107C30.7678 18.6035 30.4142 18.75 30 18.75ZM12.486 13.9853C12.5362 13.9238 12.576 13.8548 12.606 13.7798C13.041 12.657 13.8165 11.4105 14.9303 10.0312C15.8519 8.87982 16.8089 7.75858 17.8013 6.66751C18.1294 6.30615 18.1201 5.95364 17.7735 5.61002C17.6675 5.50574 17.5412 5.44073 17.3948 5.41501C15.9382 5.16376 14.451 5.19901 12.9277 5.52301C10.7602 5.98425 9.28125 6.71701 8.4765 7.68301C8.39609 7.77979 8.34309 7.8898 8.3175 8.013C8.0925 9.08701 8.424 10.302 9.363 11.6805C9.96052 12.5682 10.6608 13.3657 11.4638 14.073C11.835 14.3996 12.1758 14.3704 12.486 13.9853ZM35.5147 13.9853C35.825 14.3704 36.1657 14.3996 36.537 14.073C37.3095 13.398 38.01 12.6015 38.637 11.6805C39.5767 10.302 39.9075 9.08701 39.6825 8.013C39.6571 7.88986 39.6044 7.77988 39.5242 7.68301C38.7195 6.71701 37.2397 5.98425 35.073 5.52301C33.5497 5.19901 32.0625 5.16299 30.606 5.41501C30.4595 5.44073 30.3333 5.50574 30.2272 5.61002C29.8806 5.95364 29.8714 6.30615 30.1995 6.66751C31.1918 7.75858 32.1488 8.87982 33.0705 10.0312C34.1842 11.4113 34.9597 12.6562 35.3955 13.7798C35.424 13.8548 35.4638 13.9238 35.5147 13.9853ZM18 18.75C17.5858 18.75 17.2322 18.6035 16.9393 18.3107C16.6464 18.0178 16.5 17.6642 16.5 17.25C16.5 16.8358 16.6464 16.4822 16.9393 16.1893C17.2322 15.8965 17.5858 15.75 18 15.75C18.4142 15.75 18.7678 15.8965 19.0607 16.1893C19.3536 16.4822 19.5 16.8358 19.5 17.25C19.5 17.6642 19.3536 18.0178 19.0607 18.3107C18.7678 18.6035 18.4142 18.75 18 18.75Z" fill-rule="nonzero" fill="#85898D"/>
	</g>
</svg>
