<svg width="36.000000" height="58.000000" viewBox="0 0 36 58" fill="none" xmlns="http://www.w3.org/2000/svg" xmlns:xlink="http://www.w3.org/1999/xlink">
	<desc>
			Created with Pixso.
	</desc>
	<defs>
		<clipPath id="clip2_59">
			<rect id="我的" width="36.000000" height="36.000000" fill="white"/>
		</clipPath>
	</defs>
	<path id="我的" d="M10.9297 41.9336Q11.0273 43.0859 11.1445 44.0156Q11.2656 44.9414 11.4258 45.7109Q13.0742 44.3047 14.1953 42.5117L15.1211 43.1211Q14.4023 44.1914 13.5781 45.1367Q12.7539 46.0781 11.7461 46.9258Q12.0508 47.8242 12.5117 48.543Q12.8164 48.9922 13.0703 49.168Q13.3281 49.3438 13.5859 49.3438Q13.8594 49.3438 14.0078 49.2227Q14.1602 49.1016 14.3359 48.6875Q14.5117 48.2695 14.6094 47.832Q14.707 47.3906 14.7852 46.8789L15.793 47.5195Q15.6641 48.0625 15.5195 48.5273Q15.3789 48.9922 15.1055 49.5977Q14.8828 50.0938 14.4883 50.3672Q14.0977 50.6406 13.5859 50.6406Q13.0078 50.6406 12.4805 50.2773Q11.9531 49.918 11.4883 49.1211Q11.3125 48.8164 11.1445 48.457Q10.9766 48.0938 10.832 47.6484Q9.32812 48.75 7.44141 49.6953L6.73828 48.6055Q8.89844 47.6328 10.4805 46.4648Q10.2578 45.582 10.082 44.4648Q9.90625 43.3438 9.77734 41.9336L6.40234 41.9336L6.40234 44.4297Q7.10547 44.2891 7.73828 44.1367Q8.37109 43.9844 8.88281 43.8555L8.96094 44.4453L9.00781 44.9414Q8.49609 45.0703 7.82422 45.2305Q7.15234 45.3906 6.40234 45.5664L6.40234 48.6562Q6.40234 49.1523 6.30469 49.4727Q6.21094 49.793 5.96094 50Q5.71484 50.207 5.29688 50.3164Q4.88281 50.4297 4.25781 50.4961L3.42578 50.5898L3.07422 49.4219L4.11328 49.3281Q4.51172 49.2969 4.74219 49.2305Q4.97656 49.168 5.08984 49.0547Q5.20312 48.9414 5.22656 48.7578Q5.25 48.5742 5.25 48.3047L5.25 45.8086Q4.43359 45.9844 3.67969 46.1289Q2.92969 46.2695 2.32031 46.3516L2.01562 45.2305Q2.69141 45.1367 3.53125 44.9922Q4.37109 44.8477 5.25 44.6719L5.25 41.9336L2 41.9336L2 40.8477L5.25 40.8477L5.25 38.7031Q4.5625 38.8164 3.89062 38.8984Q3.21875 38.9766 2.625 39.0234L2.54688 37.9844Q3.23438 37.918 4.01562 37.8164Q4.80078 37.7109 5.58594 37.5742Q6.37109 37.4375 7.08984 37.2812Q7.80859 37.1211 8.35156 36.9414L8.54688 38Q8.11328 38.1289 7.55859 38.2578Q7.00781 38.3828 6.40234 38.4961L6.40234 40.8477L9.69922 40.8477Q9.67969 40.543 9.66406 40.2227Q9.64844 39.9023 9.63281 39.582L9.50391 36.3672L10.6406 36.3984Q10.6406 36.7656 10.6719 37.5977Q10.707 38.4297 10.7695 39.5195Q10.8008 39.8711 10.8086 40.1992Q10.8164 40.5273 10.8477 40.8477L15.8398 40.8477L15.8398 41.9336L10.9297 41.9336ZM14.0156 40.2891Q13.8086 39.9844 13.4883 39.6016Q13.168 39.2148 12.8164 38.8398Q12.4648 38.4648 12.1133 38.1367Q11.7617 37.8086 11.5039 37.5977L12.2422 36.8477Q12.4961 37.0547 12.8555 37.375Q13.2188 37.6953 13.5781 38.0547Q13.9375 38.4141 14.2656 38.7695Q14.5938 39.1211 14.8164 39.375L14.0156 40.2891ZM31.0877 38.8477Q31.0565 40.8164 31.0096 42.6406Q30.994 43.4219 30.9706 44.2383Q30.9471 45.0547 30.9198 45.8398Q30.8963 46.625 30.8729 47.3125Q30.8495 48 30.8182 48.5273Q30.787 49.0391 30.6893 49.375Q30.5917 49.7109 30.3768 49.9258Q30.162 50.1445 29.8182 50.2461Q29.4745 50.3516 28.9471 50.3984L27.5682 50.5117L27.1854 49.2969L28.7362 49.1992Q29.1385 49.168 29.3456 48.9766Q29.5526 48.7852 29.6034 48.1602Q29.6502 47.3125 29.6893 46.1992Q29.7284 45.0859 29.7596 43.9453Q29.7948 42.8008 29.8104 41.7539Q29.826 40.7031 29.8417 39.9844L26.1932 40Q25.9706 40.5273 25.7284 41.0391Q25.4901 41.5508 25.2167 42.0625L24.1307 41.4883Q24.8338 40.3047 25.4002 38.8555Q25.9706 37.4062 26.3221 36L27.4901 36.2383Q27.2987 36.9102 27.0877 37.5586Q26.8807 38.207 26.6424 38.8477L31.0877 38.8477ZM22.162 36.4141Q22.0331 36.9414 21.8573 37.5742Q21.6815 38.207 21.4432 38.8789L23.9198 38.8789L23.9198 50.1445L18.4667 50.1445L18.4667 38.8789L20.1151 38.8789Q20.3534 38.2383 20.5292 37.5508Q20.7049 36.8633 20.8651 36.1445L22.162 36.4141ZM22.8026 40.0312L19.5838 40.0312L19.5838 43.8242L22.8026 43.8242L22.8026 40.0312ZM27.537 46.3516Q26.9784 45.1992 26.3768 44.2148Q25.7792 43.2305 25.3143 42.5586L26.2557 41.918Q26.8026 42.6406 27.4159 43.625Q28.0331 44.6055 28.5604 45.6641L27.537 46.3516ZM22.8026 49.0234L22.8026 44.9922L19.5838 44.9922L19.5838 49.0234L22.8026 49.0234Z" fill-rule="evenodd" fill="#8A8F93"/>
	<g clip-path="url(#clip2_59)">
		<path id="path" d="M18 19.8C13.5009 19.8 9.9 15.7482 9.9 10.8C9.9 5.85178 13.5009 1.79999 18 1.79999C22.4991 1.79999 26.1 5.85178 26.1 10.8C26.1 15.7482 22.4991 19.8 18 19.8ZM18 18C21.4542 18 24.3 14.7987 24.3 10.8C24.3 6.8013 21.4542 3.59998 18 3.59998C14.5458 3.59998 11.7 6.8013 11.7 10.8C11.7 14.7987 14.5458 18 18 18ZM4.5 27.9C4.5 27.064 4.66006 26.2599 4.98016 25.4876C5.30027 24.7154 5.75603 24.0338 6.34746 23.443C6.93887 22.8521 7.62088 22.3971 8.39346 22.0777C9.16605 21.7584 9.97032 21.5992 10.8063 21.6L25.1937 21.6C28.6749 21.6 31.5 24.4242 31.5 27.9C31.5 28.736 31.34 29.5401 31.0198 30.3123C30.6997 31.0846 30.244 31.7662 29.6525 32.357C29.0611 32.9478 28.3791 33.4029 27.6065 33.7222C26.834 34.0416 26.0297 34.2008 25.1937 34.2L10.8063 34.2C7.3251 34.2 4.5 31.3758 4.5 27.9ZM6.3 27.9C6.3 30.3813 8.3196 32.4 10.8063 32.4L25.1937 32.4C25.791 32.4008 26.3656 32.2872 26.9177 32.0593C27.4698 31.8313 27.9571 31.5063 28.3797 31.0842C28.8024 30.6621 29.1281 30.1753 29.3569 29.6235C29.5856 29.0718 29.7 28.4973 29.7 27.9C29.7 25.4187 27.6804 23.4 25.1937 23.4L10.8063 23.4C10.209 23.3991 9.63435 23.5127 9.08229 23.7407C8.53024 23.9687 8.04288 24.2937 7.62025 24.7158C7.19761 25.1378 6.87191 25.6247 6.64314 26.1765C6.41438 26.7282 6.3 27.3027 6.3 27.9Z" fill-rule="nonzero" fill="#8A8F93"/>
	</g>
</svg>
