<svg width="36.000000" height="58.000000" viewBox="0 0 36 58" fill="none" xmlns="http://www.w3.org/2000/svg" xmlns:xlink="http://www.w3.org/1999/xlink">
	<desc>
			Created with Pixso.
	</desc>
	<defs>
		<clipPath id="clip2_119">
			<rect id="数据" width="36.000000" height="36.000000" fill="white"/>
		</clipPath>
	</defs>
	<path id="数据" d="M13.3564 46.4336Q14.4932 48.0469 16.4619 49.5352L15.6299 50.4023Q14.7158 49.6641 13.9971 48.9336Q13.2783 48.207 12.7158 47.4414Q12.126 48.2266 11.3252 48.9609Q10.5244 49.6953 9.43848 50.4805L8.7002 49.5859Q9.85254 48.8164 10.6689 48.0586Q11.4854 47.2969 12.0439 46.4336Q11.4229 45.3438 11.0439 44.1758Q10.6689 43.0078 10.4619 41.6641Q10.333 41.8906 10.1963 42.1211Q10.0635 42.3516 9.91895 42.5781L9.02051 42Q9.46973 41.375 9.86035 40.6172Q10.2549 39.8555 10.5635 39.0586Q10.876 38.2578 11.0986 37.4648Q11.3252 36.6719 11.4541 36L12.5752 36.2734Q12.4463 36.8477 12.2783 37.418Q12.1104 37.9844 11.9033 38.5625L16.0635 38.5625L16.0635 39.7109L14.9736 39.7109Q14.876 40.8008 14.7471 41.7461Q14.6221 42.6875 14.4385 43.5039Q14.2549 44.3203 13.9893 45.0508Q13.7236 45.7773 13.3564 46.4336ZM1.80566 43.0078Q2.91113 42.4648 3.77441 41.7852Q4.6377 41.1055 5.30957 40.3516L2.30176 40.3516L2.30176 39.375L5.58301 39.375L5.58301 36.0977L6.65332 36.1602L6.65332 39.375L9.53223 39.375L9.53223 40.3516L6.65332 40.3516L6.65332 43.3281L5.58301 43.3281L5.58301 41.3594Q4.97363 42.0664 4.18066 42.6992Q3.3877 43.3281 2.37988 43.8711L1.80566 43.0078ZM9.34082 36.8633Q9.23145 37.1211 9.07129 37.4258Q8.91113 37.7305 8.72363 38.043Q8.54004 38.3516 8.34863 38.6406Q8.15723 38.9297 7.99707 39.1367L7.19629 38.6875Q7.34082 38.4961 7.5166 38.2266Q7.69238 37.9531 7.86035 37.6562Q8.02832 37.3594 8.18066 37.0508Q8.33301 36.7383 8.44629 36.4648L9.34082 36.8633ZM3.90332 39.1211Q3.82129 38.8633 3.7002 38.5547Q3.58301 38.2422 3.43848 37.9375Q3.29395 37.6328 3.14941 37.3633Q3.00488 37.0898 2.89551 36.8789L3.74316 36.5625Q3.85254 36.7383 3.99707 37.0117Q4.1416 37.2812 4.28613 37.5938Q4.43066 37.9062 4.55566 38.2266Q4.68457 38.543 4.78223 38.8164L3.90332 39.1211ZM11.2314 40.1602Q11.4072 41.6797 11.7432 42.9375Q12.0791 44.1914 12.6689 45.3125Q13.1963 44.1602 13.4697 42.8086Q13.7432 41.457 13.9033 39.7109L11.4229 39.7109L11.2314 40.1602ZM8.84473 43.5859Q8.37988 43.0234 7.86035 42.4727Q7.34082 41.9219 6.8291 41.4727L7.46973 40.8789Q7.88379 41.1992 8.44238 41.7539Q9.00488 42.3047 9.48535 42.8477L8.84473 43.5859ZM8.41504 49.4883Q7.96582 49.2148 7.48535 48.9688Q7.00488 48.7227 6.50879 48.4648Q5.82129 48.9766 4.85254 49.4414Q3.88379 49.9062 2.47754 50.3672L1.91895 49.3594Q3.11816 49.0078 3.97363 48.6641Q4.8291 48.3203 5.4541 47.9375Q4.21973 47.3438 3.07129 46.9141Q3.29395 46.543 3.5166 46.1602Q3.74316 45.7773 3.9502 45.3945L2.09473 45.3945L2.09473 44.4336L4.43066 44.4336Q4.5752 44.1289 4.69238 43.8516Q4.81348 43.5703 4.91113 43.3125L5.93457 43.6484Q5.85254 43.8555 5.77051 44.0508Q5.69238 44.2422 5.61426 44.4336L8.94238 44.4336L8.94238 45.3438Q8.62207 46.0156 8.25098 46.6094Q7.88379 47.1992 7.35645 47.7305Q7.70801 47.9062 8.0752 48.0742Q8.44629 48.2422 8.84473 48.4336L8.41504 49.4883ZM4.52441 46.5273Q4.95801 46.7031 5.40332 46.8906Q5.85254 47.0742 6.34863 47.2969Q6.8291 46.8789 7.15723 46.418Q7.48535 45.9531 7.75879 45.3945L5.14941 45.3945Q5.00488 45.6953 4.84473 45.9766Q4.68457 46.2578 4.52441 46.5273ZM22.62 43.1523Q22.3192 43.2969 21.909 43.4805Q21.5028 43.6641 21.0379 43.8555L21.0379 48.4961Q21.0379 48.9922 20.9559 49.3047Q20.8778 49.6172 20.6669 49.8086Q20.4598 50 20.1083 50.0859Q19.7567 50.1758 19.2137 50.207L18.5106 50.2734L18.2059 49.1836L18.9911 49.1211Q19.2762 49.1055 19.4598 49.0547Q19.6473 49.0078 19.7489 48.9102Q19.8544 48.8164 19.8934 48.6406Q19.9325 48.4648 19.9325 48.1914L19.9325 44.3047Q19.327 44.543 18.7567 44.7539Q18.1903 44.9609 17.7879 45.0898L17.5497 43.9531Q17.9833 43.8242 18.6122 43.5938Q19.245 43.3594 19.9325 43.0898L19.9325 40.0664L18.077 40.0664L18.077 38.9609L19.9325 38.9609L19.9325 36.0664L21.0379 36.0977L21.0379 38.9609L22.5419 38.9609L22.5419 40.0664L21.0379 40.0664L21.0379 42.6562Q21.452 42.4805 21.7958 42.3203Q22.1434 42.1602 22.4129 42.0312L22.5262 42.6719L22.62 43.1523ZM28.5262 43.4414L28.5262 45.2148L31.0223 45.2148L31.0223 50.418L29.9481 50.418L29.9481 49.5859L26.0301 49.5859L26.0301 50.4336L24.9559 50.4336L24.9559 45.2148L27.4364 45.2148L27.4364 43.4414L24.3192 43.4414Q24.2684 44.5781 24.1395 45.5Q24.0145 46.418 23.7879 47.2266Q23.5653 48.0312 23.2294 48.7695Q22.8934 49.5039 22.4129 50.2891L21.3895 49.6797Q21.9325 48.7695 22.284 47.9453Q22.6395 47.1211 22.8544 46.1797Q23.0692 45.2344 23.1551 44.0742Q23.245 42.9141 23.245 41.3438L23.245 36.8789L31.2762 36.8789L31.2762 40.7539L24.3504 40.7539L24.3504 41.4883Q24.3504 41.7461 24.3504 41.9961Q24.3504 42.2422 24.3348 42.4648L27.4364 42.4648L27.4364 41.1211L28.5262 41.1523L28.5262 42.4648L32.077 42.4648L32.077 43.4414L28.5262 43.4414ZM24.3504 37.9062L24.3504 39.7461L30.159 39.7461L30.159 37.9062L24.3504 37.9062ZM29.9481 46.2422L26.0301 46.2422L26.0301 48.5781L29.9481 48.5781L29.9481 46.2422Z" fill-rule="evenodd" fill="#85898D"/>
	<g clip-path="url(#clip2_119)">
		<path id="path" d="M14.769 3.17249L21.0983 3.17249L21.0983 26.5005L14.769 26.5005L14.769 3.17249Z" fill-rule="nonzero" fill="#85898D"/>
		<path id="path" d="M6.336 13.9792L12.663 13.9792L12.663 26.5005L6.336 26.5005L6.336 13.9792Z" fill-rule="nonzero" fill="#85898D"/>
		<path id="path" d="M23.2043 9.79651L29.5335 9.79651L29.5335 26.5027L23.2043 26.5027L23.2043 9.79651Z" fill-rule="nonzero" fill="#85898D"/>
		<path id="path" d="M2.25 28.71L33.75 28.71L33.75 32.8275L2.25 32.8275L2.25 28.71Z" fill-rule="nonzero" fill="#85898D"/>
		<path id="path" d="M17.0775 5.61151L21.0983 5.61151L21.0983 26.5027L17.0775 26.5027L17.0775 5.61151Z" fill-rule="nonzero" fill="#85898D"/>
		<path id="path" d="M8.64224 16.353L12.663 16.353L12.663 26.5027L8.64224 26.5027L8.64224 16.353Z" fill-rule="nonzero" fill="#85898D"/>
		<path id="path" d="M25.5128 12.0038L29.5335 12.0038L29.5335 26.5005L25.5128 26.5005L25.5128 12.0038Z" fill-rule="nonzero" fill="#85898D"/>
		<path id="path" d="M4.32675 30.7845L33.75 30.7845L33.75 32.8275L4.32675 32.8275L4.32675 30.7845Z" fill-rule="nonzero" fill="#85898D"/>
	</g>
</svg>
