<svg width="36.000000" height="58.000000" viewBox="0 0 36 58" fill="none" xmlns="http://www.w3.org/2000/svg" xmlns:xlink="http://www.w3.org/1999/xlink">
	<desc>
			Created with Pixso.
	</desc>
	<defs>
		<clipPath id="clip2_95">
			<rect id=" 消息" width="36.000000" height="36.000000" fill="white"/>
		</clipPath>
	</defs>
	<path id="消息" d="M11.6484 40.5117L15.1367 40.5117L15.1367 48.5469Q15.1367 49.0586 15.0547 49.3789Q14.9766 49.6992 14.7773 49.8828Q14.5781 50.0664 14.2148 50.1523Q13.8555 50.2422 13.2969 50.2891L12.1914 50.3867L11.8086 49.2344L12.9609 49.1211Q13.3125 49.0898 13.5195 49.0391Q13.7305 48.9922 13.832 48.8984Q13.9375 48.8008 13.9609 48.625Q13.9844 48.4492 13.9844 48.1602L13.9844 47.0898L8.16016 47.0898L8.16016 50.3711L7.00781 50.3711L7.00781 40.5117L10.4961 40.5117L10.4961 36.0156L11.6484 36.0664L11.6484 40.5117ZM3.45703 36.5625Q3.76172 36.7539 4.13672 37.0117Q4.51172 37.2656 4.89453 37.5547Q5.28125 37.8398 5.64062 38.1289Q6 38.418 6.24219 38.6406L5.58594 39.7461Q5.3125 39.4727 4.95312 39.1523Q4.59375 38.832 4.20703 38.5312Q3.82422 38.2266 3.45703 37.9531Q3.08984 37.6797 2.80078 37.5039L3.45703 36.5625ZM8.75391 40Q8.52734 39.6797 8.23828 39.3047Q7.95312 38.9297 7.64844 38.5703Q7.34375 38.2109 7.04688 37.8828Q6.75391 37.5547 6.49609 37.3125L7.26562 36.5781Q7.50391 36.8008 7.81641 37.1367Q8.12891 37.4727 8.45703 37.8438Q8.78516 38.2109 9.08203 38.5703Q9.37891 38.9297 9.57031 39.2031L8.75391 40ZM15.6328 37.3789Q15.4102 37.6641 15.1289 38.0273Q14.8477 38.3867 14.5352 38.7461Q14.2266 39.1055 13.9141 39.4414Q13.6016 39.7773 13.3281 40.0508L12.4961 39.3125Q12.7695 39.0586 13.082 38.7305Q13.3945 38.4023 13.6953 38.0508Q14 37.6992 14.2891 37.3398Q14.5781 36.9766 14.8008 36.6406L15.6328 37.3789ZM4.86719 43.3594Q4.625 43.0586 4.25781 42.7148Q3.89062 42.3711 3.48828 42.043Q3.08984 41.7148 2.69531 41.4336Q2.30469 41.1523 2 40.9609L2.65625 40Q2.96094 40.1758 3.35156 40.4492Q3.74609 40.7227 4.14453 41.0352Q4.54688 41.3438 4.92188 41.6484Q5.29688 41.9531 5.55469 42.1914L4.86719 43.3594ZM13.9844 41.6172L8.16016 41.6172L8.16016 43.2656L13.9844 43.2656L13.9844 41.6172ZM13.9844 46.0352L13.9844 44.3359L8.16016 44.3359L8.16016 46.0352L13.9844 46.0352ZM5.60156 44.8672Q5.47266 45.4258 5.24609 46.1719Q5.02344 46.9141 4.77344 47.6914Q4.52734 48.4648 4.26172 49.1758Q4 49.8906 3.77734 50.3867L2.59375 50.0156Q2.81641 49.5391 3.09766 48.8203Q3.37891 48.0977 3.63281 47.3164Q3.89062 46.5312 4.10547 45.7891Q4.32031 45.043 4.43359 44.4805L5.60156 44.8672ZM24.7206 45.0898L19.6971 45.0898L19.6971 37.5039L23.2323 37.5039Q23.3768 37.1055 23.5135 36.6992Q23.6502 36.2891 23.744 36L25.0252 36.2578Q24.9471 36.4805 24.826 36.8164Q24.7049 37.1523 24.576 37.5039L29.7127 37.5039L29.7127 45.0898L24.8338 45.0898Q25.0409 45.3438 25.287 45.6562Q25.537 45.9688 25.7674 46.2891Q26.0018 46.6094 26.201 46.9141Q26.4002 47.2188 26.5292 47.457L25.5995 48.1758Q25.4588 47.875 25.2479 47.5234Q25.0409 47.168 24.8065 46.8164Q24.576 46.4648 24.3456 46.1523Q24.1151 45.8398 23.9198 45.6172L24.7206 45.0898ZM20.8807 38.4961L20.8807 39.6328L28.5292 39.6328L28.5292 38.4961L20.8807 38.4961ZM28.5292 40.625L20.8807 40.625L20.8807 41.8242L28.5292 41.8242L28.5292 40.625ZM20.8807 44.0977L28.5292 44.0977L28.5292 42.8164L20.8807 42.8164L20.8807 44.0977ZM29.4901 45.6484Q29.7792 45.9688 30.1034 46.3711Q30.4315 46.7695 30.7518 47.2188Q31.0721 47.6641 31.3846 48.1211Q31.6971 48.5781 31.9549 48.9922L31.0409 49.793Q30.8182 49.3594 30.5057 48.8672Q30.1932 48.3711 29.8651 47.8906Q29.537 47.4102 29.2088 46.9883Q28.8807 46.5625 28.6424 46.2578L29.4901 45.6484ZM27.1542 48.1758Q27.2167 47.6641 27.2479 47.1055L28.3846 47.5703Q28.3377 48.1289 28.2401 48.6406Q28.162 49.1055 28.0409 49.3906Q27.9198 49.6797 27.7049 49.832Q27.4901 49.9844 27.162 50.0469Q26.8338 50.1133 26.3221 50.1445Q24.7362 50.2422 23.1542 50.1445Q22.6581 50.1133 22.3377 50.0234Q22.0174 49.9375 21.826 49.7383Q21.6346 49.5391 21.5604 49.1914Q21.4901 48.8477 21.4901 48.3047L21.4901 45.793L22.6893 45.8555L22.6893 48.0664Q22.6893 48.3516 22.7206 48.5469Q22.7518 48.7383 22.8495 48.8516Q22.9471 48.9609 23.1229 49.0078Q23.2987 49.0586 23.5995 49.0742Q24.8182 49.1367 26.0331 49.0742Q26.369 49.0586 26.576 49.0156Q26.787 48.9766 26.8963 48.8828Q27.0096 48.7852 27.0643 48.6172Q27.1229 48.4492 27.1542 48.1758ZM17.5682 49.4883Q18.0799 48.7227 18.5018 47.7305Q18.9276 46.7383 19.1854 45.8086L20.2713 46.1758Q20.1307 46.6562 19.9432 47.1602Q19.7596 47.6641 19.537 48.1602Q19.3143 48.6562 19.0643 49.1133Q18.8182 49.5703 18.5604 49.9688L17.5682 49.4883Z" fill-rule="evenodd" fill="#85898D"/>
	<g clip-path="url(#clip2_95)">
		<path id="path" d="M33 15.9645C33 23.0527 26.4458 28.7685 18.342 28.9253C18.021 29.289 17.9295 29.3903 17.772 29.5545C17.7195 29.61 17.7195 29.61 17.6655 29.6647C17.4 29.9348 17.1292 30.183 16.419 30.8108C14.511 32.2635 11.8193 32.9962 9.85875 33C9.66508 33.0003 9.49657 32.9353 9.35326 32.805C9.11126 32.5889 9.03226 32.3241 9.11625 32.0107C9.14475 31.8907 9.1935 31.7895 9.25875 31.6845C9.33 31.5705 9.4215 31.4535 9.57076 31.2765C9.60976 31.23 9.87601 30.918 9.96075 30.8167C10.125 30.6202 10.2645 30.4455 10.3973 30.2685C11.2148 29.1735 11.565 28.2127 11.3348 27.3322C11.2083 26.8485 11.3869 26.5434 11.8706 26.4169C12.3544 26.2904 12.6595 26.469 12.786 26.9528C13.1588 28.38 12.6623 29.7427 11.5988 31.1663C11.5575 31.2217 11.5155 31.2765 11.4727 31.3312C12.8475 31.0673 14.3565 30.4965 15.4665 29.6535C16.1093 29.0835 16.362 28.851 16.596 28.6125C16.7633 28.437 16.9463 28.2412 17.4375 27.6833C17.5866 27.5135 17.7741 27.4285 18 27.4283C25.479 27.4283 31.5 22.2682 31.5 15.9645C31.5 9.66 25.479 4.5 18 4.5C10.521 4.5 4.5 9.66 4.5 15.9645C4.5 19.0208 5.9175 21.894 8.412 24.0315C8.79234 24.357 8.81963 24.7097 8.49386 25.0898C8.16808 25.4698 7.81529 25.4969 7.4355 25.1707C4.62 22.7565 3 19.4745 3 15.9645C3 8.77649 9.7395 3 18 3C26.2605 3 33 8.77649 33 15.9645ZM12 13.5C12 13.086 12.3337 12.75 12.75 12.75L23.25 12.75C23.664 12.75 24 13.083 24 13.5C24 13.914 23.6663 14.25 23.25 14.25L12.75 14.25C12.336 14.25 12 13.917 12 13.5ZM12 18C12 17.586 12.342 17.25 12.7515 17.25L20.2485 17.25C20.7485 17.25 20.9985 17.5 20.9985 18C20.9985 18.5 20.7485 18.75 20.2485 18.75L12.7515 18.75C12.25 18.7515 11.9995 18.5015 12 18Z" fill-rule="nonzero" fill="#85898D"/>
	</g>
</svg>
